<?xml version="1.0" encoding="utf-8"?>
<svg width="504.357" height="313.62" viewBox="0 0 504.357 313.62" fill="none" xmlns="http://www.w3.org/2000/svg">
  <g transform="translate(2.5 2.5)">
    <rect width="499.357" height="308.62" fill="#000000" fill-rule="evenodd" stroke-width="5" stroke="#000000" />
    <path d="M1 149L1 0" fill="none" stroke-width="6" stroke="#DD00FF" transform="translate(123.349 113.162)" />
    <path d="M1 0L1 89" fill="none" stroke-width="6" stroke="#00FF1E" transform="translate(197.349 173.162)" />
    <path d="M108 1L0 1" fill="none" stroke-width="6" stroke="#00FF1E" transform="translate(195.349 172.162)" />
    <path d="M1 0L1 87" fill="none" stroke-width="6" stroke="#00FF1E" transform="translate(299.349 172.162)" />
    <path d="M105 1L0 1" fill="none" stroke-width="6" stroke="#00FF1E" transform="translate(198.349 258.162)" />
    <path d="M1 85L1 0" fill="none" stroke-width="6" stroke="#DD00FF" transform="translate(52.349 113.162)" />
    <path d="M111 1L0 1" fill="none" stroke-width="6" stroke="#DD00FF" transform="translate(50.349 195.162)" />
    <path d="M1 149L1 0" fill="none" stroke-width="6" stroke="#DD00FF" transform="translate(410.349 113.162)" />
    <path d="M1 85L1 0" fill="none" stroke-width="6" stroke="#DD00FF" transform="translate(339.349 113.162)" />
    <path d="M111 1L0 1" fill="none" stroke-width="6" stroke="#DD00FF" transform="translate(337.349 195.162)" />
    <path d="M148 1L0 1" fill="none" stroke-width="6" stroke="#FF9D00" transform="translate(300.349 87.162)" />
    <path d="M148 1L0 1" fill="none" stroke-width="6" stroke="#FF9D00" transform="translate(50.349 87.162)" />
  </g>
</svg>